<!DOCTYPE svg PUBLIC "-//W3C//DTD SVG 1.1//EN" "http://www.w3.org/Graphics/SVG/1.1/DTD/svg11.dtd">
<!-- Uploaded to: SVG Repo, www.svgrepo.com, Transformed by: SVG Repo Mixer Tools -->
<svg fill="#008000" height="800px" width="800px" version="1.1" id="Capa_1" xmlns="http://www.w3.org/2000/svg" xmlns:xlink="http://www.w3.org/1999/xlink" viewBox="0 0 297 297" xml:space="preserve">
<g id="SVGRepo_bgCarrier" stroke-width="0"/>
<g id="SVGRepo_tracerCarrier" stroke-linecap="round" stroke-linejoin="round"/>
<g id="SVGRepo_iconCarrier"> <g> <path d="M113.986,209.155c-2.197,0-4.361,0.889-5.909,2.447c-1.558,1.558-2.457,3.723-2.457,5.919c0,2.196,0.899,4.351,2.457,5.919 c1.548,1.557,3.712,2.447,5.909,2.447c2.206,0,4.361-0.89,5.919-2.447c1.557-1.558,2.447-3.713,2.447-5.919 c0-2.207-0.89-4.361-2.447-5.919C118.347,210.043,116.192,209.155,113.986,209.155z"/> <path d="M267.206,185.582c-2.057-16.465-11.21-30.85-24.486-38.482l-49.029-28.182c10.546-11.153,17.033-26.182,17.033-42.707 c0-1.178-0.042-2.354-0.109-3.529h58.672c5.775,0,10.458-4.682,10.458-10.458s-4.682-10.458-10.458-10.458h-46.3 C211.528,20.982,181.782,0,148.5,0S85.472,20.982,74.013,51.766h-46.3c-5.775,0-10.458,4.682-10.458,10.458 s4.682,10.458,10.458,10.458h58.672c-0.067,1.175-0.109,2.352-0.109,3.529c0,16.525,6.487,31.554,17.033,42.707L54.28,147.1 c-13.274,7.63-22.428,22.016-24.487,38.482l-12.457,99.663c-0.372,2.976,0.553,5.969,2.537,8.218 c1.985,2.249,4.841,3.537,7.84,3.537h241.574c2.999,0,5.855-1.288,7.84-3.537c1.985-2.249,2.909-5.242,2.537-8.218L267.206,185.582 z M89.937,193.468h117.127v82.616H89.937V193.468z M107.192,172.553v-31.742l14.619-8.403c8.093,3.859,17.142,6.026,26.69,6.026 s18.596-2.167,26.69-6.026l14.619,8.403v31.742H107.192z M148.5,20.915c21.248,0,40.54,11.606,50.806,29.456H97.694 C107.96,32.521,127.252,20.915,148.5,20.915z M189.656,72.681c0.101,1.174,0.152,2.351,0.152,3.529 c0,22.777-18.531,41.308-41.308,41.308s-41.308-18.531-41.308-41.308c0-1.179,0.051-2.355,0.152-3.529H189.656z M50.547,188.176 c1.249-9.989,6.54-18.566,14.156-22.943l21.573-12.4v19.72h-6.798c-5.775,0-10.458,4.683-10.458,10.458v93.074H39.56 L50.547,188.176z M227.979,276.085v-93.074c0-5.775-4.682-10.458-10.458-10.458h-6.798v-19.72l21.573,12.4 c7.616,4.377,12.907,12.955,14.155,22.943l10.989,87.908H227.979z"/> <path d="M183.007,209.155c-2.197,0-4.361,0.889-5.909,2.447c-1.558,1.558-2.457,3.712-2.457,5.919c0,2.206,0.899,4.361,2.457,5.919 c1.548,1.557,3.712,2.447,5.909,2.447c2.206,0,4.361-0.89,5.919-2.447c1.557-1.558,2.447-3.724,2.447-5.919 c0-2.207-0.89-4.361-2.447-5.919C187.368,210.043,185.213,209.155,183.007,209.155z"/> </g> </g>
</svg>