<!DOCTYPE svg PUBLIC "-//W3C//DTD SVG 1.1//EN" "http://www.w3.org/Graphics/SVG/1.1/DTD/svg11.dtd">
<!-- Uploaded to: SVG Repo, www.svgrepo.com, Transformed by: SVG Repo Mixer Tools -->
<svg fill="#03cc00" width="800px" height="800px" viewBox="0 0 32 32" version="1.1" xmlns="http://www.w3.org/2000/svg" stroke="#03cc00">
<g id="SVGRepo_bgCarrier" stroke-width="0"/>
<g id="SVGRepo_tracerCarrier" stroke-linecap="round" stroke-linejoin="round"/>
<g id="SVGRepo_iconCarrier"> <title>plus-user</title> <path d="M2.016 28q0 0.832 0.576 1.44t1.408 0.576h14.016v-0.352q-1.792-0.608-2.912-2.176t-1.088-3.488q0-2.016 1.184-3.584t3.072-2.112q0.384-1.216 1.216-2.176t2.016-1.504q0.512-1.376 0.512-2.624v-1.984q0-3.328-2.368-5.664t-5.632-2.336-5.664 2.336-2.336 5.664v1.984q0 2.112 1.024 3.904t2.784 2.912q-1.504 0.544-2.912 1.504t-2.496 2.144-1.76 2.624-0.64 2.912zM18.016 24q0 0.832 0.576 1.44t1.408 0.576h2.016v1.984q0 0.864 0.576 1.44t1.408 0.576 1.408-0.576 0.608-1.44v-1.984h1.984q0.832 0 1.408-0.576t0.608-1.44-0.608-1.408-1.408-0.576h-1.984v-2.016q0-0.832-0.608-1.408t-1.408-0.576-1.408 0.576-0.576 1.408v2.016h-2.016q-0.832 0-1.408 0.576t-0.576 1.408z"/> </g>
</svg>