<?xml version="1.0" encoding="iso-8859-1"?>
<!-- Uploaded to: SVG Repo, www.svgrepo.com, Generator: SVG Repo Mixer Tools -->
<svg fill="#000000" height="800px" width="800px" version="1.1" id="Layer_1" xmlns="http://www.w3.org/2000/svg" xmlns:xlink="http://www.w3.org/1999/xlink" 
	 viewBox="0 0 512 512" xml:space="preserve">
<g>
	<g>
		<path d="M483.691,440.435c-39.202,0-79.041-88.716-79.041-138.284v-85.96c0-27.968-7.74-55.299-22.383-79.036
			c-12.912-20.93-30.685-38.299-51.679-50.639c0.543-3.668,0.824-7.38,0.824-11.104C331.411,33.83,297.581,0,256,0
			c-41.582,0-75.412,33.83-75.412,75.412c0,3.651,0.271,7.29,0.792,10.887c-45.851,26.596-74.031,75.161-74.031,128.567v87.285
			c0,49.568-39.84,138.284-79.041,138.284c-5.633,0-10.199,4.566-10.199,10.199s4.566,10.199,10.199,10.199h167.188
			C200.37,489.831,225.638,512,256,512c30.361,0,55.628-22.169,60.502-51.166h167.189c5.632,0,10.199-4.566,10.199-10.199
			C493.89,445.001,489.323,440.435,483.691,440.435z M200.988,75.411C200.986,45.077,225.666,20.398,256,20.398
			s55.012,24.679,55.012,55.013c0,0.479-0.006,0.958-0.019,1.436l0.027,0.027c-5.548-2.238-11.226-4.128-17.004-5.67l0.043-0.009
			C291.954,52.059,275.688,37.121,256,37.121c-19.668,0-35.92,14.906-38.053,34.013l0.034,0.011
			c-5.777,1.525-11.456,3.394-17.005,5.608l0.028-0.027C200.993,76.288,200.988,75.85,200.988,75.411z M271.816,67.069
			c-5.221-0.56-10.48-0.851-15.739-0.853c-5.315-0.002-10.621,0.285-15.887,0.841c3.007-5.666,8.962-9.538,15.811-9.538
			C262.853,57.519,268.811,61.396,271.816,67.069z M256,491.602c-19.069,0-35.138-13.097-39.683-30.768h79.365
			C291.137,478.505,275.069,491.602,256,491.602z M307.166,440.436v-0.001H204.833H71.41c10.362-10.107,20.169-23.828,29.044-40.844
			c16.325-31.298,27.294-70.456,27.294-97.441v-87.285c0-48.317,26.722-92.058,69.737-114.155
			c10.343-5.314,21.354-9.184,32.726-11.505c8.431-1.721,17.106-2.593,25.789-2.593c0.021,0,0.044,0,0.066,0
			c8.648,0.004,17.292,0.887,25.694,2.623c11.358,2.347,22.348,6.255,32.669,11.619c43.068,22.383,69.823,66.576,69.823,115.336
			v85.96c0,26.985,10.969,66.143,27.294,97.441c8.875,17.015,18.682,30.736,29.045,40.844H307.166z"/>
	</g>
</g>
<g>
	<g>
		<path d="M219.822,123.535c-2.573-5.011-8.719-6.985-13.732-4.412c-36.672,18.84-59.453,56.134-59.453,97.332v62.515
			c0,5.633,4.566,10.199,10.199,10.199c5.633,0,10.199-4.566,10.198-10.199v-62.515c0-33.516,18.537-63.859,48.376-79.188
			C220.421,134.693,222.396,128.546,219.822,123.535z"/>
	</g>
</g>
<g>
	<g>
		<path d="M277.993,109.332c-7.178-1.483-14.558-2.237-21.935-2.241c-0.002,0-0.003,0-0.005,0c-5.63,0-10.196,4.563-10.199,10.194
			c-0.003,5.633,4.561,10.201,10.194,10.204c5.996,0.003,11.991,0.615,17.818,1.818c0.696,0.144,1.39,0.213,2.075,0.213
			c4.734,0,8.98-3.317,9.978-8.138C287.058,115.868,283.508,110.472,277.993,109.332z"/>
	</g>
</g>
</svg>