<svg xmlns="http://www.w3.org/2000/svg" xmlns:xlink="http://www.w3.org/1999/xlink" viewBox="0,0,256,256" width="250px" height="250px" fill-rule="nonzero"><g fill="#34a136" fill-rule="nonzero" stroke="none" stroke-width="1" stroke-linecap="butt" stroke-linejoin="miter" stroke-miterlimit="10" stroke-dasharray="" stroke-dashoffset="0" font-family="none" font-weight="none" font-size="none" text-anchor="none" style="mix-blend-mode: normal"><g transform="scale(5.12,5.12)"><path d="M14,4c-5.51133,0 -10,4.48867 -10,10v22c0,5.51133 4.48867,10 10,10h22c5.51133,0 10,-4.48867 10,-10v-22c0,-5.51133 -4.48867,-10 -10,-10zM14,6h22c4.43067,0 8,3.56933 8,8v22c0,4.43067 -3.56933,8 -8,8h-22c-4.43067,0 -8,-3.56933 -8,-8v-22c0,-4.43067 3.56933,-8 8,-8zM21.13281,12c-1.05293,0 -2.03126,0.55485 -2.57227,1.45703l-1.83594,3.05664c-0.18232,0.30197 -0.50646,0.48633 -0.85742,0.48633h-4.86719c-1.09306,0 -2,0.90694 -2,2v16c0,1.09306 0.90694,2 2,2h28c1.09306,0 2,-0.90694 2,-2v-16c0,-1.09306 -0.90694,-2 -2,-2h-4.86719c-0.35307,0 -0.67643,-0.18256 -0.85742,-0.48437c0,-0.00065 0,-0.0013 0,-0.00195l-1.83594,-3.05664c-0.54101,-0.90218 -1.51984,-1.45703 -2.57227,-1.45703zM12,14c-0.552,0 -1,0.448 -1,1v1h4v-1c0,-0.552 -0.448,-1 -1,-1zM21.13281,14h7.73438c0.35157,0 0.67643,0.18256 0.85742,0.48438c0,0.00065 0,0.0013 0,0.00195l1.83398,3.05664c0.54101,0.90213 1.52129,1.45703 2.57422,1.45703h4.86719v16h-28v-16h4.86719c1.05243,0 2.03041,-0.55398 2.57226,-1.45508c0.00065,-0.00065 0.0013,-0.0013 0.00195,-0.00195l1.83398,-3.05664c0,-0.00065 0,-0.0013 0,-0.00195c0.18094,-0.30172 0.50435,-0.48437 0.85742,-0.48437zM25,20c-3.85415,0 -7,3.14585 -7,7c0,3.85415 3.14585,7 7,7c3.85415,0 7,-3.14585 7,-7c0,-3.85415 -3.14585,-7 -7,-7zM34,20c-0.55228,0 -1,0.44772 -1,1c0,0.55228 0.44772,1 1,1c0.55228,0 1,-0.44772 1,-1c0,-0.55228 -0.44772,-1 -1,-1zM25,22c2.77327,0 5,2.22673 5,5c0,2.77327 -2.22673,5 -5,5c-2.77327,0 -5,-2.22673 -5,-5c0,-2.77327 2.22673,-5 5,-5z"></path></g></g></svg>